<svg width="11" height="9" viewBox="0 0 11 9" fill="none" xmlns="http://www.w3.org/2000/svg">
<path d="M9.5459 0.149658C10.0443 0.14982 10.45 0.55556 10.4502 1.05396V6.36157C10.4501 6.85999 10.0443 7.26571 9.5459 7.26587H4.1582L2.74707 8.54126C2.62725 8.64966 2.47567 8.70719 2.32031 8.70728C2.23169 8.70728 2.14252 8.68881 2.05859 8.65161C1.82525 8.54763 1.67856 8.32254 1.67871 8.06665V7.26587H1.05469C0.555979 7.26587 0.149556 6.86011 0.149414 6.36157V1.05396C0.149577 0.555434 0.555991 0.149658 1.05469 0.149658H9.5459ZM1.05469 0.834229C0.933629 0.834229 0.834147 0.933222 0.833984 1.05396V6.36157C0.834127 6.48246 0.933566 6.5813 1.05469 6.5813H2.02051C2.11135 6.5813 2.19858 6.61691 2.2627 6.68091C2.3268 6.74501 2.36325 6.83219 2.36328 6.9231V7.96411L3.79688 6.66919L3.84766 6.6311C3.901 6.59854 3.96284 6.5813 4.02637 6.5813H9.5459C9.66678 6.58114 9.76548 6.48246 9.76562 6.36157V1.05396C9.76546 0.93322 9.66672 0.834391 9.5459 0.834229H1.05469Z" fill="#99331A" stroke="#99331A" stroke-width="0.3"/>
</svg>
