<svg width="26" height="26" viewBox="0 0 26 26" fill="none" xmlns="http://www.w3.org/2000/svg">
<path d="M0.514359 0.511485C1.19634 -0.170495 2.30211 -0.170495 2.98409 0.511485L12.9177 10.4441L22.8513 0.515391C23.5333 -0.166589 24.639 -0.166589 25.321 0.515391C26.0027 1.19739 26.0029 2.30322 25.321 2.98512L15.3874 12.9138L25.32 22.8464C26.002 23.5284 26.0019 24.6342 25.32 25.3162C24.9771 25.6591 24.5295 25.8288 24.0856 25.8289C23.6377 25.8289 23.1933 25.6592 22.8503 25.3162L12.9177 15.3836L2.98116 25.3162C2.64218 25.6592 2.19373 25.8289 1.7458 25.8289C1.29797 25.8288 0.854366 25.6591 0.511429 25.3162C-0.170439 24.6342 -0.170514 23.5284 0.511429 22.8464L10.448 12.9138L0.514359 2.98024C-0.167046 2.29836 -0.167063 1.19335 0.514359 0.511485Z" fill="#0D0D0D"/>
</svg>
