<svg width="6" height="8" viewBox="0 0 6 8" fill="none" xmlns="http://www.w3.org/2000/svg">
<path d="M3.26841 7.63636L3.26841 1.24139L5.19316 3.16613C5.2267 3.20087 5.26683 3.22857 5.31119 3.24763C5.35556 3.26669 5.40328 3.27672 5.45156 3.27714C5.49984 3.27756 5.54773 3.26835 5.59242 3.25007C5.63711 3.23179 5.67771 3.20479 5.71185 3.17064C5.74599 3.1365 5.773 3.0959 5.79128 3.05121C5.80956 3.00652 5.81877 2.95863 5.81835 2.91035C5.81793 2.86207 5.80789 2.81435 5.78884 2.76998C5.76978 2.72562 5.74208 2.68549 5.70734 2.65195L3.16187 0.106469C3.09367 0.0382969 3.0012 0 2.90477 0C2.80835 0 2.71587 0.0382969 2.64768 0.106469L0.102199 2.65195C0.0359588 2.72053 -0.000693798 2.81239 0.000134468 2.90773C0.000963211 3.00308 0.039207 3.09428 0.106629 3.16171C0.174051 3.22913 0.265256 3.26737 0.360601 3.2682C0.455946 3.26903 0.547803 3.23237 0.616386 3.16613L2.54113 1.24139L2.54113 7.63636C2.54113 7.7328 2.57944 7.8253 2.64764 7.89349C2.71584 7.96169 2.80833 8 2.90477 8C3.00122 8 3.09371 7.96169 3.1619 7.89349C3.2301 7.8253 3.26841 7.7328 3.26841 7.63636Z" fill="white"/>
</svg>
