<svg width="8" height="6" viewBox="0 0 8 6" fill="none" xmlns="http://www.w3.org/2000/svg">
<path d="M7.63636 2.54995H1.24139L3.16613 0.625202C3.20087 0.591657 3.22857 0.551531 3.24763 0.507166C3.26669 0.4628 3.27672 0.415084 3.27714 0.3668C3.27756 0.318516 3.26835 0.270632 3.25007 0.225942C3.23179 0.181252 3.20479 0.140651 3.17064 0.106508C3.1365 0.0723645 3.0959 0.0453631 3.05121 0.0270789C3.00652 0.00879479 2.95863 -0.000405844 2.91035 1.373e-05C2.86207 0.000433304 2.81435 0.0104648 2.76998 0.0295228C2.72562 0.0485808 2.68549 0.0762837 2.65195 0.111015L0.106469 2.65649C0.0382969 2.72469 0 2.81716 0 2.91359C0 3.01001 0.0382969 3.10249 0.106469 3.17068L2.65195 5.71616C2.72053 5.7824 2.81239 5.81905 2.90773 5.81822C3.00308 5.8174 3.09428 5.77915 3.16171 5.71173C3.22913 5.64431 3.26737 5.5531 3.2682 5.45776C3.26903 5.36241 3.23237 5.27056 3.16613 5.20197L1.24139 3.27723H7.63636C7.7328 3.27723 7.8253 3.23892 7.89349 3.17072C7.96169 3.10252 8 3.01003 8 2.91359C8 2.81714 7.96169 2.72465 7.89349 2.65646C7.8253 2.58826 7.7328 2.54995 7.63636 2.54995Z" fill="black"/>
</svg>
